<svg xmlns="http://www.w3.org/2000/svg" viewBox="0 0 1000 324" fill="none">
  <path d="M416.8 18.7L370.2 305.3h-74.5l46.6-286.6h74.5zM697.3 200.2l39.2-108.1 22.6 108.1h-61.8zm83.2 105.1h69l-60.3-286.6h-63.6c-14.3 0-26.4 8.3-31.8 21.1l-112 265.5h78.4l15.6-43.1h95.7l9 43.1zM590.2 211c.3-75.9-105-80.1-104.3-114 .2-10.3 10.1-21.3 31.6-24.1 10.6-1.4 40-2.5 73.3 13l13.1-61c-17.9-6.5-40.9-12.7-69.6-12.7-73.5 0-125.3 39.1-125.6 95.1-.4 41.4 36.9 64.5 65.1 78.3 29 14.2 38.7 23.3 38.6 36-.2 19.4-23.1 28-44.5 28.3-37.4.6-59.1-10.1-76.4-18.2l-13.5 63c17.4 8 49.5 14.9 82.8 15.3 78.1 0 129.2-38.6 129.4-98.5M349.2 18.7l-120.4 286.6h-78.6l-59.3-228.8c-3.6-14.1-6.7-19.3-17.6-25.3-17.9-9.8-47.4-19-73.4-24.7l1.8-8h126.7c16.1 0 30.6 10.8 34.3 29.4l31.4 166.7 77.5-196.1h78.6z" fill="#1A1F71"/>
</svg>